<mxfile host="app.diagrams.net" modified="2024-02-26T08:16:02.539Z" agent="Mozilla/5.0 (Windows NT 10.0; Win64; x64) AppleWebKit/537.36 (KHTML, like Gecko) Chrome/121.0.0.0 Safari/537.36" version="23.1.5" etag="mcHTSp5BpK-eqbiTczjQ" type="github">
  <diagram name="Page-1" id="wYkm1q4rZ0aGmsffK5B6">
    <mxGraphModel>
      <root>
        <mxCell id="0" />
        <mxCell id="1" parent="0" />
      </root>
    </mxGraphModel>
  </diagram>
</mxfile>
